<?xml version="1.0" encoding="UTF-8" standalone="no"?>
<!DOCTYPE svg PUBLIC "-//W3C//DTD SVG 1.1//EN"
 "http://www.w3.org/Graphics/SVG/1.1/DTD/svg11.dtd">
<!-- Generated by graphviz version 2.38.0 (20140413.2041)
 -->
<!-- Title: %3 Pages: 1 -->
<svg width="886pt" height="355pt"
 viewBox="0.00 0.00 885.89 355.00" xmlns="http://www.w3.org/2000/svg" xmlns:xlink="http://www.w3.org/1999/xlink">
<g id="graph0" class="graph" transform="scale(1 1) rotate(0) translate(4 351)">
<title>%3</title>
<polygon fill="#333333" stroke="none" points="-4,4 -4,-351 881.891,-351 881.891,4 -4,4"/>
<text text-anchor="middle" x="438.946" y="-9.2" font-family="Times,serif" font-size="16.00" fill="white">Network Map</text>
<g id="node1" class="node"><title></title>
<polygon fill="#006699" stroke="#006699" points="826.891,-204.5 772.891,-204.5 772.891,-168.5 826.891,-168.5 826.891,-204.5"/>
</g>
<!-- R3 -->
<g id="node2" class="node"><title>R3</title>
<polygon fill="#006699" stroke="#006699" points="161.891,-223 85.891,-223 85.891,-150 161.891,-150 161.891,-223"/>
<text text-anchor="middle" x="123.891" y="-182.8" font-family="Helvetica,sans-Serif" font-size="14.00" fill="white">R3</text>
</g>
<!-- R5 -->
<g id="node6" class="node"><title>R5</title>
<polygon fill="#006699" stroke="#006699" points="100.891,-347 24.891,-347 24.891,-274 100.891,-274 100.891,-347"/>
<text text-anchor="middle" x="62.891" y="-306.8" font-family="Helvetica,sans-Serif" font-size="14.00" fill="white">R5</text>
</g>
<!-- R3&#45;&#45;R5 -->
<g id="edge4" class="edge"><title>R3&#45;&#45;R5</title>
<path fill="none" stroke="green" stroke-dasharray="5,2" d="M85.6297,-213.06C76.898,-220.912 68.7632,-230.337 63.891,-241 59.294,-251.061 57.9051,-262.852 58,-273.788"/>
<text text-anchor="middle" x="113.891" y="-244.8" font-family="Courier,monospace" font-size="14.00" fill="white"> &#160;&#160;&#160;&#160;&#160;&#160;&#160;&#160;&#160;&#160;&#160;</text>
<text text-anchor="middle" x="29" y="-262.588" font-family="Courier,monospace" font-size="14.00" fill="white">Eth 0/0</text>
<text text-anchor="middle" x="56.6297" y="-201.86" font-family="Courier,monospace" font-size="14.00" fill="white">Eth 0/2</text>
</g>
<!-- SW1 -->
<g id="node7" class="node"><title>SW1</title>
<polygon fill="#006699" stroke="#006699" points="475.391,-99 386.391,-99 386.391,-26 475.391,-26 475.391,-99"/>
<text text-anchor="middle" x="430.891" y="-58.8" font-family="Helvetica,sans-Serif" font-size="14.00" fill="white">SW1</text>
</g>
<!-- R3&#45;&#45;SW1 -->
<g id="edge10" class="edge"><title>R3&#45;&#45;SW1</title>
<path fill="none" stroke="green" stroke-dasharray="5,2" d="M155.233,-149.661C167.443,-137.668 182.259,-125.263 197.891,-117 258.251,-85.0939 337.246,-72.1016 386.005,-66.8902"/>
<text text-anchor="middle" x="247.891" y="-120.8" font-family="Courier,monospace" font-size="14.00" fill="white"> &#160;&#160;&#160;&#160;&#160;&#160;&#160;&#160;&#160;&#160;&#160;</text>
<text text-anchor="middle" x="357.005" y="-55.6902" font-family="Courier,monospace" font-size="14.00" fill="white">Eth 0/3</text>
<text text-anchor="middle" x="126.233" y="-138.461" font-family="Courier,monospace" font-size="14.00" fill="white">Eth 0/0</text>
</g>
<!-- R4 -->
<g id="node8" class="node"><title>R4</title>
<polygon fill="#006699" stroke="#006699" points="223.891,-347 147.891,-347 147.891,-274 223.891,-274 223.891,-347"/>
<text text-anchor="middle" x="185.891" y="-306.8" font-family="Helvetica,sans-Serif" font-size="14.00" fill="white">R4</text>
</g>
<!-- R3&#45;&#45;R4 -->
<g id="edge3" class="edge"><title>R3&#45;&#45;R4</title>
<path fill="none" stroke="green" stroke-dasharray="5,2" d="M153.126,-223.279C157.066,-229.007 160.807,-235.023 163.891,-241 169.161,-251.212 173.484,-262.931 176.861,-273.755"/>
<text text-anchor="middle" x="220.891" y="-244.8" font-family="Courier,monospace" font-size="14.00" fill="white"> &#160;&#160;&#160;&#160;&#160;&#160;&#160;&#160;&#160;&#160;&#160;</text>
<text text-anchor="middle" x="147.861" y="-262.555" font-family="Courier,monospace" font-size="14.00" fill="white">Eth 0/0</text>
<text text-anchor="middle" x="124.126" y="-227.079" font-family="Courier,monospace" font-size="14.00" fill="white">Eth 0/1</text>
</g>
<!-- R1 -->
<g id="node3" class="node"><title>R1</title>
<polygon fill="#006699" stroke="#006699" points="406.891,-223 330.891,-223 330.891,-150 406.891,-150 406.891,-223"/>
<text text-anchor="middle" x="368.891" y="-182.8" font-family="Helvetica,sans-Serif" font-size="14.00" fill="white">R1</text>
</g>
<!-- R1&#45;&#45;SW1 -->
<g id="edge1" class="edge"><title>R1&#45;&#45;SW1</title>
<path fill="none" stroke="green" stroke-dasharray="5,2" d="M398.126,-149.721C402.066,-143.993 405.807,-137.977 408.891,-132 414.161,-121.788 418.484,-110.069 421.861,-99.2453"/>
<text text-anchor="middle" x="465.891" y="-120.8" font-family="Courier,monospace" font-size="14.00" fill="white"> &#160;&#160;&#160;&#160;&#160;&#160;&#160;&#160;&#160;&#160;&#160;</text>
<text text-anchor="middle" x="392.861" y="-103.045" font-family="Courier,monospace" font-size="14.00" fill="white">Eth 0/1</text>
<text text-anchor="middle" x="369.126" y="-138.521" font-family="Courier,monospace" font-size="14.00" fill="white">Eth 0/0</text>
</g>
<!-- R2 -->
<g id="node4" class="node"><title>R2</title>
<polygon fill="#006699" stroke="#006699" points="652.891,-223 576.891,-223 576.891,-150 652.891,-150 652.891,-223"/>
<text text-anchor="middle" x="614.891" y="-182.8" font-family="Helvetica,sans-Serif" font-size="14.00" fill="white">R2</text>
</g>
<!-- SW2 -->
<g id="node5" class="node"><title>SW2</title>
<polygon fill="#006699" stroke="#006699" points="659.391,-347 570.391,-347 570.391,-274 659.391,-274 659.391,-347"/>
<text text-anchor="middle" x="614.891" y="-306.8" font-family="Helvetica,sans-Serif" font-size="14.00" fill="white">SW2</text>
</g>
<!-- R2&#45;&#45;SW2 -->
<g id="edge9" class="edge"><title>R2&#45;&#45;SW2</title>
<path fill="none" stroke="green" stroke-dasharray="5,2" d="M614.891,-223.115C614.891,-239.01 614.891,-257.704 614.891,-273.629"/>
<text text-anchor="middle" x="664.891" y="-244.8" font-family="Courier,monospace" font-size="14.00" fill="white"> &#160;&#160;&#160;&#160;&#160;&#160;&#160;&#160;&#160;&#160;&#160;</text>
<text text-anchor="middle" x="585.891" y="-262.429" font-family="Courier,monospace" font-size="14.00" fill="white">Eth 0/1</text>
<text text-anchor="middle" x="585.891" y="-226.915" font-family="Courier,monospace" font-size="14.00" fill="white">Eth 0/1</text>
</g>
<!-- R2&#45;&#45;SW1 -->
<g id="edge2" class="edge"><title>R2&#45;&#45;SW1</title>
<path fill="none" stroke="green" stroke-dasharray="5,2" d="M652.54,-149.779C659.717,-138.842 662.826,-127.053 654.891,-117 632.968,-89.2246 534.279,-74.2821 475.457,-67.7048"/>
<text text-anchor="middle" x="709.891" y="-120.8" font-family="Courier,monospace" font-size="14.00" fill="white"> &#160;&#160;&#160;&#160;&#160;&#160;&#160;&#160;&#160;&#160;&#160;</text>
<text text-anchor="middle" x="504.457" y="-56.5048" font-family="Courier,monospace" font-size="14.00" fill="white">Eth 0/2</text>
<text text-anchor="middle" x="623.54" y="-138.579" font-family="Courier,monospace" font-size="14.00" fill="white">Eth 0/0</text>
</g>
<!-- SW1&#45;&#45; -->
<g id="edge5" class="edge"><title>SW1&#45;&#45;</title>
<path fill="none" stroke="green" stroke-dasharray="5,2" d="M475.611,-65.7845C555.465,-70.6478 718.481,-84.3678 763.891,-117 781.02,-129.309 790.679,-152.284 795.588,-168.213"/>
<text text-anchor="middle" x="827.891" y="-120.8" font-family="Courier,monospace" font-size="14.00" fill="white"> &#160;&#160;&#160;&#160;&#160;&#160;&#160;&#160;&#160;&#160;&#160;</text>
</g>
<!-- SW1&#45;&#45;R3 -->
<g id="edge6" class="edge"><title>SW1&#45;&#45;R3</title>
<path fill="none" stroke="green" stroke-dasharray="5,2" d="M386.205,-63.0544C297.516,-63.2256 104.233,-69.2128 62.891,-117 49.0341,-133.017 66.0401,-150.88 85.5806,-164.348"/>
<text text-anchor="middle" x="112.891" y="-120.8" font-family="Courier,monospace" font-size="14.00" fill="white"> &#160;&#160;&#160;&#160;&#160;&#160;&#160;&#160;&#160;&#160;&#160;</text>
<text text-anchor="middle" x="56.5806" y="-153.148" font-family="Courier,monospace" font-size="14.00" fill="white">Eth 0/0</text>
<text text-anchor="middle" x="357.205" y="-66.8544" font-family="Courier,monospace" font-size="14.00" fill="white">Eth 0/3</text>
</g>
<!-- SW1&#45;&#45;R1 -->
<g id="edge8" class="edge"><title>SW1&#45;&#45;R1</title>
<path fill="none" stroke="green" stroke-dasharray="5,2" d="M386.173,-69.8331C357.682,-76.4361 322.86,-89.8491 304.891,-117 292.945,-135.051 310.686,-152.835 330.492,-165.757"/>
<text text-anchor="middle" x="354.891" y="-120.8" font-family="Courier,monospace" font-size="14.00" fill="white"> &#160;&#160;&#160;&#160;&#160;&#160;&#160;&#160;&#160;&#160;&#160;</text>
<text text-anchor="middle" x="301.492" y="-154.557" font-family="Courier,monospace" font-size="14.00" fill="white">Eth 0/0</text>
<text text-anchor="middle" x="357.173" y="-73.6331" font-family="Courier,monospace" font-size="14.00" fill="white">Eth 0/1</text>
</g>
<!-- SW1&#45;&#45;R2 -->
<g id="edge7" class="edge"><title>SW1&#45;&#45;R2</title>
<path fill="none" stroke="green" stroke-dasharray="5,2" d="M475.708,-89.4497C489.986,-97.9794 505.744,-107.671 519.891,-117 538.903,-129.537 559.463,-144.216 576.578,-156.762"/>
<text text-anchor="middle" x="591.891" y="-120.8" font-family="Courier,monospace" font-size="14.00" fill="white"> &#160;&#160;&#160;&#160;&#160;&#160;&#160;&#160;&#160;&#160;&#160;</text>
<text text-anchor="middle" x="547.578" y="-145.562" font-family="Courier,monospace" font-size="14.00" fill="white">Eth 0/0</text>
<text text-anchor="middle" x="504.708" y="-78.2497" font-family="Courier,monospace" font-size="14.00" fill="white">Eth 0/2</text>
</g>
</g>
</svg>
